<svg id="Layer_1" data-name="Layer 1" xmlns="http://www.w3.org/2000/svg" viewBox="0 0 85 20"><defs><style>.cls-1{fill:none;stroke:#f1e5c6;stroke-miterlimit:10;}</style></defs><rect class="cls-1" x="7.69" y="1.53" width="24.22" height="5.83"/><polyline class="cls-1" points="12.78 7.95 12.78 10.28 1.61 10.28 4.67 7.03 1.36 3.61 7.7 3.61 7.7 7.36 12.78 10.28"/><polyline class="cls-1" points="26.72 7.38 24.56 10.13 32.13 7.35"/><rect class="cls-1" x="53.56" y="1.53" width="24.22" height="5.83" transform="translate(131.33 8.89) rotate(-180)"/><polyline class="cls-1" points="72.69 7.95 72.69 10.28 83.86 10.28 80.81 7.03 84.11 3.61 77.78 3.61 77.78 7.36 72.69 10.28"/><polyline class="cls-1" points="58.76 7.38 60.92 10.13 53.34 7.35"/><path class="cls-1" d="M29.45,8.33s13.48,7.2,26.32-.09"/><path class="cls-1" d="M23.53,10.86s5.12,7.82,19.33,7.82S62,11,62,11"/></svg>